<mxfile host="app.diagrams.net" modified="2023-08-23T06:41:40.772Z" agent="Mozilla/5.0 (Macintosh; Intel Mac OS X 10_15_7) AppleWebKit/537.36 (KHTML, like Gecko) Chrome/116.0.0.0 Safari/537.36" etag="XZ-CaBaWN0K0kAFvNKKY" version="21.6.9" type="github">
  <diagram name="第 1 页" id="nrF_U3a3AeAiswmmul4R">
    <mxGraphModel dx="2876" dy="1141" grid="1" gridSize="10" guides="1" tooltips="1" connect="1" arrows="1" fold="1" page="1" pageScale="1" pageWidth="827" pageHeight="1169" math="0" shadow="0">
      <root>
        <mxCell id="0" />
        <mxCell id="1" parent="0" />
        <mxCell id="fxEqzcx5x_250jyF2k8x-1" value="&lt;b&gt;&lt;font style=&quot;font-size: 15px;&quot;&gt;动态出价计算逻辑&lt;/font&gt;&lt;/b&gt;" style="rounded=1;whiteSpace=wrap;html=1;strokeWidth=2;fillWeight=4;hachureGap=8;hachureAngle=45;fillColor=#dae8fc;strokeColor=#6c8ebf;" vertex="1" parent="1">
          <mxGeometry x="180" y="600" width="160" height="80" as="geometry" />
        </mxCell>
        <mxCell id="fxEqzcx5x_250jyF2k8x-2" value="&lt;b&gt;&lt;font style=&quot;font-size: 15px;&quot;&gt;bid&lt;/font&gt;&lt;/b&gt;" style="rounded=1;whiteSpace=wrap;html=1;strokeWidth=2;fillWeight=4;hachureGap=8;hachureAngle=45;fillColor=#d5e8d4;strokeColor=#82b366;" vertex="1" parent="1">
          <mxGeometry x="-280" y="320" width="120" height="80" as="geometry" />
        </mxCell>
        <mxCell id="fxEqzcx5x_250jyF2k8x-3" value="&lt;span style=&quot;font-size: 15px;&quot;&gt;&lt;b&gt;bidlog&lt;/b&gt;&lt;/span&gt;" style="rounded=1;whiteSpace=wrap;html=1;strokeWidth=2;fillWeight=4;hachureGap=8;hachureAngle=45;fillColor=#d5e8d4;strokeColor=#82b366;" vertex="1" parent="1">
          <mxGeometry x="-280" y="640" width="120" height="80" as="geometry" />
        </mxCell>
        <mxCell id="fxEqzcx5x_250jyF2k8x-4" value="&lt;span style=&quot;font-size: 15px;&quot;&gt;&lt;b&gt;查询服务&lt;/b&gt;&lt;/span&gt;" style="rounded=1;whiteSpace=wrap;html=1;strokeWidth=2;fillWeight=4;hachureGap=8;hachureAngle=45;fillColor=#d5e8d4;strokeColor=#82b366;" vertex="1" parent="1">
          <mxGeometry x="360" y="480" width="120" height="80" as="geometry" />
        </mxCell>
        <mxCell id="fxEqzcx5x_250jyF2k8x-7" value="竞价数据，转化数据" style="text;strokeColor=none;fillColor=none;html=1;fontSize=12;fontStyle=0;verticalAlign=middle;align=center;" vertex="1" parent="1">
          <mxGeometry x="200" y="480" width="120" height="40" as="geometry" />
        </mxCell>
        <mxCell id="fxEqzcx5x_250jyF2k8x-8" value="&lt;span style=&quot;font-size: 15px;&quot;&gt;&lt;b&gt;imp/click/event&lt;/b&gt;&lt;/span&gt;" style="rounded=1;whiteSpace=wrap;html=1;strokeWidth=2;fillWeight=4;hachureGap=8;hachureAngle=45;fillColor=#d5e8d4;strokeColor=#82b366;" vertex="1" parent="1">
          <mxGeometry x="-40" y="480" width="160" height="80" as="geometry" />
        </mxCell>
        <mxCell id="fxEqzcx5x_250jyF2k8x-10" value="&lt;span style=&quot;font-size: 15px;&quot;&gt;&lt;b&gt;dispatch&lt;/b&gt;&lt;/span&gt;" style="rounded=1;whiteSpace=wrap;html=1;strokeWidth=2;fillWeight=4;hachureGap=8;hachureAngle=45;fillColor=#d5e8d4;strokeColor=#82b366;" vertex="1" parent="1">
          <mxGeometry x="-40" y="320" width="120" height="80" as="geometry" />
        </mxCell>
        <mxCell id="fxEqzcx5x_250jyF2k8x-12" value="&lt;span style=&quot;font-size: 15px;&quot;&gt;&lt;b&gt;检查服务&lt;/b&gt;&lt;/span&gt;" style="rounded=1;whiteSpace=wrap;html=1;strokeWidth=2;fillWeight=4;hachureGap=8;hachureAngle=45;fillColor=#fad9d5;strokeColor=#ae4132;" vertex="1" parent="1">
          <mxGeometry x="200" y="320" width="120" height="80" as="geometry" />
        </mxCell>
        <mxCell id="fxEqzcx5x_250jyF2k8x-13" value="" style="endArrow=classic;html=1;rounded=0;exitX=0;exitY=0.5;exitDx=0;exitDy=0;entryX=1;entryY=0.5;entryDx=0;entryDy=0;" edge="1" parent="1" source="fxEqzcx5x_250jyF2k8x-12" target="fxEqzcx5x_250jyF2k8x-10">
          <mxGeometry width="50" height="50" relative="1" as="geometry">
            <mxPoint x="330" y="410" as="sourcePoint" />
            <mxPoint x="330" y="490" as="targetPoint" />
          </mxGeometry>
        </mxCell>
        <mxCell id="fxEqzcx5x_250jyF2k8x-16" value="&lt;span style=&quot;font-size: 15px;&quot;&gt;&lt;b&gt;mongo&lt;/b&gt;&lt;/span&gt;" style="rounded=1;whiteSpace=wrap;html=1;strokeWidth=2;fillWeight=4;hachureGap=8;hachureAngle=45;fillColor=#d5e8d4;strokeColor=#82b366;" vertex="1" parent="1">
          <mxGeometry x="-40" y="160" width="120" height="80" as="geometry" />
        </mxCell>
        <mxCell id="fxEqzcx5x_250jyF2k8x-18" value="策略的启停" style="text;strokeColor=none;fillColor=none;html=1;fontSize=15;fontStyle=1;verticalAlign=middle;align=center;fontColor=#FF0000;" vertex="1" parent="1">
          <mxGeometry x="80" y="320" width="120" height="40" as="geometry" />
        </mxCell>
        <mxCell id="fxEqzcx5x_250jyF2k8x-20" value="" style="endArrow=classic;startArrow=classic;html=1;rounded=0;entryX=0.5;entryY=1;entryDx=0;entryDy=0;exitX=0.5;exitY=0;exitDx=0;exitDy=0;" edge="1" parent="1" source="fxEqzcx5x_250jyF2k8x-10" target="fxEqzcx5x_250jyF2k8x-16">
          <mxGeometry width="50" height="50" relative="1" as="geometry">
            <mxPoint x="-130" y="550" as="sourcePoint" />
            <mxPoint x="-80" y="500" as="targetPoint" />
          </mxGeometry>
        </mxCell>
        <mxCell id="fxEqzcx5x_250jyF2k8x-21" value="&lt;span style=&quot;font-size: 15px;&quot;&gt;&lt;b&gt;front_end&lt;/b&gt;&lt;/span&gt;" style="rounded=1;whiteSpace=wrap;html=1;strokeWidth=2;fillWeight=4;hachureGap=8;hachureAngle=45;fillColor=#d5e8d4;strokeColor=#82b366;" vertex="1" parent="1">
          <mxGeometry x="360" y="160" width="120" height="80" as="geometry" />
        </mxCell>
        <mxCell id="fxEqzcx5x_250jyF2k8x-22" value="" style="endArrow=classic;startArrow=classic;html=1;rounded=0;strokeWidth=1;exitX=1;exitY=0.5;exitDx=0;exitDy=0;entryX=0;entryY=0.5;entryDx=0;entryDy=0;" edge="1" parent="1" source="fxEqzcx5x_250jyF2k8x-16" target="fxEqzcx5x_250jyF2k8x-21">
          <mxGeometry width="50" height="50" relative="1" as="geometry">
            <mxPoint x="130" y="480" as="sourcePoint" />
            <mxPoint x="180" y="430" as="targetPoint" />
          </mxGeometry>
        </mxCell>
        <mxCell id="fxEqzcx5x_250jyF2k8x-23" value="" style="html=1;verticalLabelPosition=bottom;align=center;labelBackgroundColor=#ffffff;verticalAlign=top;strokeWidth=2;strokeColor=#0080F0;shadow=0;dashed=0;shape=mxgraph.ios7.icons.eye;fontStyle=1;fontSize=15;" vertex="1" parent="1">
          <mxGeometry x="480" y="120" width="40" height="20" as="geometry" />
        </mxCell>
        <mxCell id="fxEqzcx5x_250jyF2k8x-24" value="" style="endArrow=classic;html=1;rounded=0;exitX=0.5;exitY=1;exitDx=0;exitDy=0;entryX=0.5;entryY=0;entryDx=0;entryDy=0;" edge="1" parent="1" source="fxEqzcx5x_250jyF2k8x-2" target="fxEqzcx5x_250jyF2k8x-48">
          <mxGeometry width="50" height="50" relative="1" as="geometry">
            <mxPoint x="30" y="650" as="sourcePoint" />
            <mxPoint x="-220" y="480" as="targetPoint" />
          </mxGeometry>
        </mxCell>
        <mxCell id="fxEqzcx5x_250jyF2k8x-26" value="&lt;span style=&quot;font-size: 15px;&quot;&gt;&lt;b&gt;transfer&lt;/b&gt;&lt;/span&gt;" style="rounded=1;whiteSpace=wrap;html=1;strokeWidth=2;fillWeight=4;hachureGap=8;hachureAngle=45;fillColor=#d5e8d4;strokeColor=#82b366;" vertex="1" parent="1">
          <mxGeometry x="-20" y="740" width="120" height="80" as="geometry" />
        </mxCell>
        <mxCell id="fxEqzcx5x_250jyF2k8x-28" value="" style="endArrow=classic;html=1;rounded=0;exitX=0.5;exitY=1;exitDx=0;exitDy=0;entryX=0.5;entryY=0;entryDx=0;entryDy=0;" edge="1" parent="1" source="fxEqzcx5x_250jyF2k8x-8" target="fxEqzcx5x_250jyF2k8x-36">
          <mxGeometry width="50" height="50" relative="1" as="geometry">
            <mxPoint x="-210" y="250" as="sourcePoint" />
            <mxPoint x="50" y="650" as="targetPoint" />
          </mxGeometry>
        </mxCell>
        <mxCell id="fxEqzcx5x_250jyF2k8x-32" value="" style="endArrow=classic;html=1;rounded=0;exitX=0.5;exitY=1;exitDx=0;exitDy=0;entryX=0.5;entryY=0;entryDx=0;entryDy=0;" edge="1" parent="1" source="fxEqzcx5x_250jyF2k8x-12" target="fxEqzcx5x_250jyF2k8x-1">
          <mxGeometry width="50" height="50" relative="1" as="geometry">
            <mxPoint x="30" y="530" as="sourcePoint" />
            <mxPoint x="259" y="480" as="targetPoint" />
          </mxGeometry>
        </mxCell>
        <mxCell id="fxEqzcx5x_250jyF2k8x-33" value="" style="endArrow=classic;html=1;rounded=0;exitX=0.5;exitY=1;exitDx=0;exitDy=0;entryX=0.5;entryY=0;entryDx=0;entryDy=0;entryPerimeter=0;" edge="1" parent="1" source="fxEqzcx5x_250jyF2k8x-4" target="fxEqzcx5x_250jyF2k8x-46">
          <mxGeometry width="50" height="50" relative="1" as="geometry">
            <mxPoint x="30" y="570" as="sourcePoint" />
            <mxPoint x="300" y="920" as="targetPoint" />
          </mxGeometry>
        </mxCell>
        <mxCell id="fxEqzcx5x_250jyF2k8x-36" value="BidexLog" style="rounded=1;whiteSpace=wrap;html=1;strokeWidth=2;fillWeight=4;hachureGap=8;hachureAngle=45;fillColor=#fff2cc;fontStyle=1;strokeColor=#d6b656;" vertex="1" parent="1">
          <mxGeometry x="-20" y="640" width="120" height="40" as="geometry" />
        </mxCell>
        <mxCell id="fxEqzcx5x_250jyF2k8x-37" value="BidexObject" style="rounded=1;whiteSpace=wrap;html=1;strokeWidth=2;fillWeight=4;hachureGap=8;hachureAngle=45;fillColor=#fff2cc;fontStyle=1;strokeColor=#d6b656;" vertex="1" parent="1">
          <mxGeometry x="-280" y="840" width="120" height="40" as="geometry" />
        </mxCell>
        <mxCell id="fxEqzcx5x_250jyF2k8x-38" value="" style="endArrow=classic;html=1;rounded=0;exitX=0.5;exitY=1;exitDx=0;exitDy=0;entryX=0.5;entryY=0;entryDx=0;entryDy=0;" edge="1" parent="1" source="fxEqzcx5x_250jyF2k8x-3" target="fxEqzcx5x_250jyF2k8x-37">
          <mxGeometry width="50" height="50" relative="1" as="geometry">
            <mxPoint x="-210" y="250" as="sourcePoint" />
            <mxPoint x="-220" y="690" as="targetPoint" />
          </mxGeometry>
        </mxCell>
        <mxCell id="fxEqzcx5x_250jyF2k8x-39" value="" style="endArrow=classic;html=1;rounded=0;exitX=0.5;exitY=1;exitDx=0;exitDy=0;entryX=0.5;entryY=0;entryDx=0;entryDy=0;" edge="1" parent="1" source="fxEqzcx5x_250jyF2k8x-36" target="fxEqzcx5x_250jyF2k8x-26">
          <mxGeometry width="50" height="50" relative="1" as="geometry">
            <mxPoint x="50" y="570" as="sourcePoint" />
            <mxPoint x="50" y="610" as="targetPoint" />
          </mxGeometry>
        </mxCell>
        <mxCell id="fxEqzcx5x_250jyF2k8x-40" value="" style="endArrow=classic;html=1;rounded=0;exitX=0.5;exitY=1;exitDx=0;exitDy=0;entryX=1;entryY=0.5;entryDx=0;entryDy=0;" edge="1" parent="1" source="fxEqzcx5x_250jyF2k8x-26" target="fxEqzcx5x_250jyF2k8x-37">
          <mxGeometry width="50" height="50" relative="1" as="geometry">
            <mxPoint x="50" y="650" as="sourcePoint" />
            <mxPoint x="50" y="690" as="targetPoint" />
            <Array as="points">
              <mxPoint x="40" y="860" />
            </Array>
          </mxGeometry>
        </mxCell>
        <mxCell id="fxEqzcx5x_250jyF2k8x-41" value="&lt;span style=&quot;font-size: 15px;&quot;&gt;&lt;b&gt;入库fluem等&lt;/b&gt;&lt;/span&gt;" style="rounded=1;whiteSpace=wrap;html=1;strokeWidth=2;fillWeight=4;hachureGap=8;hachureAngle=45;fillColor=#d5e8d4;strokeColor=#82b366;" vertex="1" parent="1">
          <mxGeometry x="-80" y="920" width="120" height="80" as="geometry" />
        </mxCell>
        <mxCell id="fxEqzcx5x_250jyF2k8x-42" value="" style="endArrow=classic;html=1;rounded=0;exitX=0.5;exitY=1;exitDx=0;exitDy=0;entryX=0;entryY=0.5;entryDx=0;entryDy=0;" edge="1" parent="1" source="fxEqzcx5x_250jyF2k8x-37" target="fxEqzcx5x_250jyF2k8x-41">
          <mxGeometry width="50" height="50" relative="1" as="geometry">
            <mxPoint x="-210" y="570" as="sourcePoint" />
            <mxPoint x="-210" y="850" as="targetPoint" />
            <Array as="points">
              <mxPoint x="-220" y="960" />
            </Array>
          </mxGeometry>
        </mxCell>
        <mxCell id="fxEqzcx5x_250jyF2k8x-44" value="" style="endArrow=classic;html=1;rounded=0;exitX=1;exitY=0.5;exitDx=0;exitDy=0;entryX=0;entryY=0.5;entryDx=0;entryDy=0;entryPerimeter=0;" edge="1" parent="1" source="fxEqzcx5x_250jyF2k8x-41" target="fxEqzcx5x_250jyF2k8x-46">
          <mxGeometry width="50" height="50" relative="1" as="geometry">
            <mxPoint x="50" y="670" as="sourcePoint" />
            <mxPoint x="240" y="960" as="targetPoint" />
          </mxGeometry>
        </mxCell>
        <mxCell id="fxEqzcx5x_250jyF2k8x-45" value="" style="endArrow=classic;html=1;rounded=0;entryX=1;entryY=0.5;entryDx=0;entryDy=0;" edge="1" parent="1" target="fxEqzcx5x_250jyF2k8x-2">
          <mxGeometry width="50" height="50" relative="1" as="geometry">
            <mxPoint x="-40" y="360" as="sourcePoint" />
            <mxPoint x="90" y="370" as="targetPoint" />
          </mxGeometry>
        </mxCell>
        <mxCell id="fxEqzcx5x_250jyF2k8x-46" value="&lt;b style=&quot;border-color: var(--border-color); font-size: 15px;&quot;&gt;clickhouse&lt;/b&gt;" style="shape=cylinder3;whiteSpace=wrap;html=1;boundedLbl=1;backgroundOutline=1;size=15;fillColor=#e1d5e7;strokeColor=#9673a6;" vertex="1" parent="1">
          <mxGeometry x="350" y="920" width="140" height="80" as="geometry" />
        </mxCell>
        <mxCell id="fxEqzcx5x_250jyF2k8x-47" value="" style="endArrow=classic;html=1;rounded=0;exitX=0.5;exitY=1;exitDx=0;exitDy=0;entryX=0.5;entryY=0;entryDx=0;entryDy=0;" edge="1" parent="1" source="fxEqzcx5x_250jyF2k8x-21" target="fxEqzcx5x_250jyF2k8x-4">
          <mxGeometry width="50" height="50" relative="1" as="geometry">
            <mxPoint x="270" y="410" as="sourcePoint" />
            <mxPoint x="269" y="490" as="targetPoint" />
          </mxGeometry>
        </mxCell>
        <mxCell id="fxEqzcx5x_250jyF2k8x-48" value="bidlog文件" style="shape=parallelogram;perimeter=parallelogramPerimeter;whiteSpace=wrap;html=1;fixedSize=1;fontStyle=1;fillColor=#b0e3e6;strokeColor=#0e8088;" vertex="1" parent="1">
          <mxGeometry x="-280" y="520" width="120" height="40" as="geometry" />
        </mxCell>
        <mxCell id="fxEqzcx5x_250jyF2k8x-49" value="" style="endArrow=classic;html=1;rounded=0;exitX=0.5;exitY=1;exitDx=0;exitDy=0;entryX=0.5;entryY=0;entryDx=0;entryDy=0;" edge="1" parent="1" source="fxEqzcx5x_250jyF2k8x-48" target="fxEqzcx5x_250jyF2k8x-3">
          <mxGeometry width="50" height="50" relative="1" as="geometry">
            <mxPoint x="-210" y="410" as="sourcePoint" />
            <mxPoint x="-210" y="490" as="targetPoint" />
          </mxGeometry>
        </mxCell>
        <mxCell id="fxEqzcx5x_250jyF2k8x-50" value="策略维度" style="text;strokeColor=none;fillColor=none;html=1;fontSize=15;fontStyle=1;verticalAlign=middle;align=center;fontColor=#FF0000;" vertex="1" parent="1">
          <mxGeometry x="-220" y="440" width="100" height="40" as="geometry" />
        </mxCell>
        <mxCell id="fxEqzcx5x_250jyF2k8x-51" value="策略维度" style="text;strokeColor=none;fillColor=none;html=1;fontSize=15;fontStyle=1;verticalAlign=middle;align=center;fontColor=#FF0000;" vertex="1" parent="1">
          <mxGeometry x="40" y="580" width="100" height="40" as="geometry" />
        </mxCell>
        <mxCell id="fxEqzcx5x_250jyF2k8x-52" value="" style="endArrow=classic;html=1;rounded=0;exitX=1;exitY=0.5;exitDx=0;exitDy=0;entryX=0.336;entryY=0.01;entryDx=0;entryDy=0;entryPerimeter=0;" edge="1" parent="1" source="fxEqzcx5x_250jyF2k8x-12" target="fxEqzcx5x_250jyF2k8x-4">
          <mxGeometry width="50" height="50" relative="1" as="geometry">
            <mxPoint x="430" y="250" as="sourcePoint" />
            <mxPoint x="430" y="490" as="targetPoint" />
            <Array as="points">
              <mxPoint x="400" y="360" />
            </Array>
          </mxGeometry>
        </mxCell>
        <mxCell id="fxEqzcx5x_250jyF2k8x-53" value="策略维度" style="text;strokeColor=none;fillColor=none;html=1;fontSize=15;fontStyle=1;verticalAlign=middle;align=center;fontColor=#FF0000;" vertex="1" parent="1">
          <mxGeometry x="140" y="920" width="100" height="40" as="geometry" />
        </mxCell>
        <mxCell id="fxEqzcx5x_250jyF2k8x-54" value="" style="endArrow=classic;html=1;rounded=0;exitX=0.5;exitY=0;exitDx=0;exitDy=0;entryX=1;entryY=0.75;entryDx=0;entryDy=0;" edge="1" parent="1" source="fxEqzcx5x_250jyF2k8x-12" target="fxEqzcx5x_250jyF2k8x-16">
          <mxGeometry width="50" height="50" relative="1" as="geometry">
            <mxPoint x="270" y="410" as="sourcePoint" />
            <mxPoint x="110" y="260" as="targetPoint" />
            <Array as="points">
              <mxPoint x="260" y="220" />
            </Array>
          </mxGeometry>
        </mxCell>
      </root>
    </mxGraphModel>
  </diagram>
</mxfile>
